<svg xmlns="http://www.w3.org/2000/svg" width="36" height="27" viewBox="0 0 36 27"><path d="M23.4,22.5h2.7a.968.968,0,0,0,.9-.9V12.15a.968.968,0,0,0-.9-.9H23.4a.968.968,0,0,0-.9.9V21.6a.968.968,0,0,0,.9.9Zm6.75,0h2.7a.968.968,0,0,0,.9-.9V5.4a.968.968,0,0,0-.9-.9h-2.7a.968.968,0,0,0-.9.9V21.6a.968.968,0,0,0,.9.9ZM9.9,22.5h2.7a.968.968,0,0,0,.9-.9V16.65a.968.968,0,0,0-.9-.9H9.9a.968.968,0,0,0-.9.9V21.6a.968.968,0,0,0,.9.9Zm6.75,0h2.7a.968.968,0,0,0,.9-.9V7.65a.968.968,0,0,0-.9-.9h-2.7a.968.968,0,0,0-.9.9V21.6A.968.968,0,0,0,16.65,22.5ZM34.875,27H4.5V5.625A1.125,1.125,0,0,0,3.375,4.5H1.125A1.125,1.125,0,0,0,0,5.625V29.25A2.25,2.25,0,0,0,2.25,31.5H34.875A1.125,1.125,0,0,0,36,30.375v-2.25A1.125,1.125,0,0,0,34.875,27Z" transform="translate(0 -4.5)" fill="#b0afaf"/></svg>