<?xml version="1.0" encoding="utf-8"?>
<!-- Generator: Adobe Illustrator 25.0.0, SVG Export Plug-In . SVG Version: 6.00 Build 0)  -->
<svg version="1.1" id="Camada_1" xmlns="http://www.w3.org/2000/svg" xmlns:xlink="http://www.w3.org/1999/xlink" x="0px" y="0px"
	 viewBox="0 0 134.9 243.6" style="enable-background:new 0 0 134.9 243.6;" xml:space="preserve">
<style type="text/css">
	.st0{fill:#D8417B;}
	.st1{fill:#51A2D6;}
	.st2{fill:#FFE196;}
	.st3{fill:#F6CE69;}
</style>
<g>
	<path class="st0" d="M63.9,108.9c-3.2,0.9-5.9,3-8.2,4.7c-1.6,1.2-3.3,2.5-4.4,2.8c-1.3,0.3-3.4,0.1-5.5-0.2
		c-3.9-0.5-8.3-1.1-12.3,1.2c-2.3,1.4-3.9,3.4-5.1,5.5L15.6,0h37.9L63.9,108.9z"/>
	<path class="st0" d="M118.8,0l-12.7,122.9c-1.2-2.1-2.8-4-5.1-5.4c-4-2.3-8.4-1.7-12.3-1.2c-2.1,0.3-4.3,0.6-5.5,0.2
		c-1.1-0.3-2.8-1.6-4.4-2.8c-2.3-1.8-5-3.9-8.3-4.8L80.9,0H118.8z"/>
	<path class="st1" d="M129.7,187.7c2.3-3,5.2-6.8,5.2-11.5c0-4.8-2.9-8.5-5.2-11.5c-1.2-1.6-2.5-3.3-2.8-4.4
		c-0.3-1.3-0.1-3.4,0.2-5.5c0.5-3.9,1.1-8.3-1.2-12.3c-2.3-4-6.7-5.8-10.2-7.3c-1.9-0.8-3.9-1.6-4.8-2.5c-0.9-0.9-1.7-2.9-2.5-4.8
		c-0.6-1.5-1.3-3.2-2.2-4.8c-1.2-2.1-2.8-4-5.1-5.4c-4-2.3-8.4-1.7-12.3-1.2c-2.1,0.3-4.3,0.6-5.5,0.2c-1.1-0.3-2.8-1.6-4.4-2.8
		c-2.3-1.8-5-3.9-8.3-4.8c-1-0.3-2.1-0.4-3.2-0.4c-1.2,0-2.3,0.2-3.3,0.5c-3.2,0.9-5.9,3-8.2,4.7c-1.6,1.2-3.3,2.5-4.4,2.8
		c-1.3,0.3-3.4,0.1-5.5-0.2c-3.9-0.5-8.3-1.1-12.3,1.2c-2.3,1.4-3.9,3.4-5.1,5.5c-0.9,1.5-1.5,3.2-2.1,4.6c-0.8,1.9-1.6,3.9-2.5,4.8
		c-0.9,0.9-2.9,1.7-4.8,2.5c-3.5,1.4-7.8,3.2-10.2,7.3c-2.3,4-1.7,8.4-1.2,12.3c0.3,2.1,0.5,4.3,0.2,5.5c-0.3,1.1-1.6,2.8-2.8,4.4
		c-2.3,3-5.2,6.8-5.2,11.5c0,4.8,2.9,8.5,5.2,11.5c1.2,1.6,2.5,3.3,2.8,4.4c0.3,1.3,0.1,3.4-0.2,5.5c-0.5,3.9-1.1,8.3,1.2,12.3
		s6.7,5.8,10.2,7.3c1.9,0.8,3.9,1.6,4.8,2.5c0.9,0.9,1.7,2.9,2.5,4.8c1.4,3.5,3.2,7.8,7.3,10.2c4,2.3,8.4,1.7,12.3,1.2
		c2.1-0.3,4.3-0.5,5.5-0.2c1.1,0.3,2.8,1.6,4.4,2.8c3,2.3,6.8,5.2,11.5,5.2c4.8,0,8.5-2.9,11.5-5.2c1.6-1.2,3.3-2.5,4.4-2.8
		c1.3-0.3,3.4-0.1,5.5,0.2c3.9,0.5,8.3,1.1,12.3-1.2s5.8-6.7,7.3-10.2c0.8-1.9,1.6-3.9,2.5-4.8c0.9-0.9,2.9-1.7,4.8-2.5
		c3.5-1.4,7.8-3.2,10.1-7.3c2.3-4,1.7-8.4,1.2-12.3c-0.3-2.1-0.5-4.3-0.2-5.5C127.2,191,128.4,189.3,129.7,187.7z M67.4,222.7
		c-25.9,0-46.8-21-46.8-46.8c0-25.9,21-46.9,46.8-46.9c12.9,0,24.6,5.3,33.1,13.7c8.5,8.5,13.7,20.2,13.7,33.1
		C114.3,201.7,93.3,222.7,67.4,222.7z"/>
	<path class="st1" d="M100.5,142.7c-8.4-8.4-20.1-13.7-33.1-13.7c-25.8,0-46.8,21-46.8,46.8c0,25.9,21,46.8,46.8,46.8
		c25.9,0,46.8-21,46.8-46.8C114.3,162.9,109,151.2,100.5,142.7z M67.6,213c-20.4,0-37-16.6-37-37s16.6-37,37-37s37,16.6,37,37
		S88,213,67.6,213z"/>
	<path class="st2" d="M100.5,142.7c-8.4-8.4-20.1-13.7-33.1-13.7c-25.8,0-46.8,21-46.8,46.8c0,25.9,21,46.8,46.8,46.8
		c25.9,0,46.8-21,46.8-46.8C114.3,162.9,109,151.2,100.5,142.7z"/>
	<circle class="st3" cx="67.6" cy="176" r="37"/>
</g>
</svg>
