<?xml version="1.0" encoding="utf-8"?>
<!-- Generator: Adobe Illustrator 25.0.0, SVG Export Plug-In . SVG Version: 6.00 Build 0)  -->
<!DOCTYPE svg PUBLIC "-//W3C//DTD SVG 1.1//EN" "http://www.w3.org/Graphics/SVG/1.1/DTD/svg11.dtd" [
	<!ENTITY ns_extend "http://ns.adobe.com/Extensibility/1.0/">
	<!ENTITY ns_ai "http://ns.adobe.com/AdobeIllustrator/10.0/">
	<!ENTITY ns_graphs "http://ns.adobe.com/Graphs/1.0/">
	<!ENTITY ns_vars "http://ns.adobe.com/Variables/1.0/">
	<!ENTITY ns_imrep "http://ns.adobe.com/ImageReplacement/1.0/">
	<!ENTITY ns_sfw "http://ns.adobe.com/SaveForWeb/1.0/">
	<!ENTITY ns_custom "http://ns.adobe.com/GenericCustomNamespace/1.0/">
	<!ENTITY ns_adobe_xpath "http://ns.adobe.com/XPath/1.0/">
]>
<svg version="1.1" id="Camada_1" xmlns:x="&ns_extend;" xmlns:i="&ns_ai;" xmlns:graph="&ns_graphs;"
	 xmlns="http://www.w3.org/2000/svg" xmlns:xlink="http://www.w3.org/1999/xlink" x="0px" y="0px" width="164.7px" height="164.7px"
	 viewBox="0 0 164.7 164.7" style="enable-background:new 0 0 164.7 164.7;" xml:space="preserve">
<style type="text/css">
	.st0{fill:#FF4A82;}
	.st1{fill:#51A2D6;}
	.st2{fill:#FFE196;}
	.st3{fill:#F6CE69;}
	.st4{fill:#FFFFFF;}
</style>
<metadata>
	<sfw  xmlns="&ns_sfw;">
		<slices></slices>
		<sliceSourceBounds  bottomLeftOrigin="true" height="164.7" width="134.9" x="0" y="-14.9"></sliceSourceBounds>
	</sfw>
</metadata>
<g>
	<path class="st0" d="M66.5,126.9c-1.2-0.3-3.4-0.1-5.5,0.2c-3.9,0.5-8.3,1.1-12.3-1.2c-4-2.3-5.8-6.5-7.2-10l-12.9,37.9h0L50,143.3
		l10.5,21.4l11.6-34c-0.4-0.3-0.8-0.6-1.2-0.9C69.3,128.5,67.6,127.2,66.5,126.9z"/>
	<path class="st0" d="M116.1,125.9c-4,2.3-8.4,1.7-12.3,1.2c-2.1-0.3-4.2-0.5-5.5-0.2c-1.1,0.3-2.8,1.6-4.4,2.8
		c-0.3,0.3-0.7,0.5-1,0.8l11.6,34.2l10.5-21.4l21.4,10.5l-13-38.2c0,0,0,0,0,0.1C121.9,119.2,120.1,123.6,116.1,125.9z"/>
	<path class="st1" d="M144.6,79c2.3-3,5.2-6.8,5.2-11.5c0-4.8-2.9-8.5-5.2-11.5c-1.2-1.6-2.5-3.3-2.8-4.4c-0.3-1.3-0.1-3.4,0.2-5.5
		c0.5-3.9,1.1-8.3-1.2-12.3s-6.7-5.8-10.2-7.3c-1.9-0.8-3.9-1.6-4.8-2.5c-0.9-0.9-1.7-2.9-2.5-4.8c-0.6-1.5-1.3-3.2-2.2-4.8
		c-1.2-2.1-2.8-4-5.1-5.4c-4-2.3-8.4-1.7-12.3-1.2c-2.1,0.3-4.3,0.6-5.5,0.2c-1.1-0.3-2.8-1.6-4.4-2.8c-2.3-1.8-5-3.9-8.3-4.8
		c-1-0.3-2.1-0.4-3.2-0.4C81.1,0,80,0.2,79,0.5c-3.2,0.9-5.9,3-8.2,4.7c-1.6,1.2-3.3,2.5-4.4,2.8c-1.3,0.3-3.4,0.1-5.5-0.2
		C57,7.3,52.6,6.7,48.6,9c-2.3,1.4-3.9,3.4-5.1,5.5c-0.9,1.5-1.5,3.2-2.1,4.6c-0.8,1.9-1.6,3.9-2.5,4.8c-0.9,0.9-2.9,1.7-4.8,2.5
		c-3.5,1.4-7.8,3.2-10.2,7.3c-2.3,4-1.7,8.4-1.2,12.3c0.3,2.1,0.5,4.3,0.2,5.5c-0.3,1.1-1.6,2.8-2.8,4.4c-2.3,3-5.2,6.8-5.2,11.5
		c0,4.8,2.9,8.5,5.2,11.5c1.2,1.6,2.5,3.3,2.8,4.4c0.3,1.3,0.1,3.4-0.2,5.5c-0.5,3.9-1.1,8.3,1.2,12.3s6.7,5.8,10.2,7.3
		c1.9,0.8,3.9,1.6,4.8,2.5c0.9,0.9,1.7,2.9,2.5,4.8c0,0.1,0,0.1,0.1,0.2c1.4,3.5,3.2,7.7,7.2,10c4,2.3,8.4,1.7,12.3,1.2
		c2.1-0.3,4.3-0.5,5.5-0.2c1.1,0.3,2.8,1.6,4.4,2.8c0.4,0.3,0.8,0.6,1.2,0.9c2.8,2.1,6.2,4.3,10.3,4.3c4.3,0,7.7-2.3,10.5-4.4
		c0.4-0.3,0.7-0.5,1-0.8c1.6-1.2,3.3-2.5,4.4-2.8c1.3-0.3,3.4-0.1,5.5,0.2c3.9,0.5,8.3,1.1,12.3-1.2c4-2.3,5.8-6.7,7.3-10.2
		c0,0,0-0.1,0-0.1c0.8-1.9,1.6-3.8,2.5-4.7c0.9-0.9,2.9-1.7,4.8-2.5c3.5-1.4,7.8-3.2,10.1-7.3c2.3-4,1.7-8.4,1.2-12.3
		c-0.3-2.1-0.5-4.3-0.2-5.5C142.1,82.3,143.3,80.6,144.6,79z M120,105.6c-8.1,8-18.7,13.4-30.5,15c-2.3,0.3-4.7,0.5-7.2,0.5
		c-2.3,0-4.6-0.2-6.9-0.4c-11.8-1.5-22.5-6.9-30.6-14.8c-10-9.7-16.2-23.3-16.2-38.3c0-29.6,24-53.6,53.6-53.6
		c14.9,0,28.3,6.1,37.9,15.7c9.7,9.7,15.8,23.1,15.7,37.9C136,82.4,129.9,95.9,120,105.6z"/>
	<path class="st2" d="M82.4,121.1c2.4,0,4.8-0.2,7.2-0.5c11.8-1.6,22.4-7,30.5-15c9.9-9.7,15.9-23.2,15.9-38.1
		c0.1-14.8-6-28.2-15.7-37.9c-9.6-9.6-23-15.7-37.9-15.7c-29.5,0-53.6,24-53.6,53.6c0,15,6.2,28.6,16.2,38.3
		c8.1,7.9,18.8,13.3,30.6,14.8C77.8,120.9,80.1,121.1,82.4,121.1z M46.7,100.6c-8-8.7-13-20.3-13-33.1c0-26.8,21.8-48.6,48.6-48.6
		c13.5,0,25.7,5.5,34.4,14.2c8.8,8.8,14.3,21,14.2,34.4c0,12.6-4.8,24.2-12.8,32.8c-7.7,8.4-18.4,14.1-30.4,15.5
		c-1.8,0.2-3.7,0.3-5.5,0.3c-1.8,0-3.5-0.1-5.2-0.3C65.2,114.6,54.5,108.9,46.7,100.6z"/>
	<path class="st3" d="M82.3,114c1.6,0,3.3-0.1,4.9-0.2c5.4-0.6,10.6-2.1,15.4-4.3c0,0,0,0,0,0c1-0.5,2-1,2.9-1.5
		c1-0.6,1.9-1.2,2.9-1.8c0.7-0.5,1.4-1,2-1.5c0.3-0.2,0.5-0.4,0.8-0.6c0.5-0.4,1-0.8,1.5-1.2c0.2-0.2,0.5-0.4,0.7-0.6
		c0.5-0.4,1-0.9,1.5-1.4c0.2-0.2,0.4-0.4,0.6-0.6c0.7-0.7,1.3-1.4,1.9-2.1c7.1-8.2,11.5-18.9,11.5-30.6c0-25.7-20.9-46.6-46.6-46.6
		c-25.7,0-46.6,20.8-46.6,46.6c0,11.8,4.4,22.6,11.7,30.8c5.5,6.3,12.7,11,20.9,13.6c0,0,0.1,0,0.1,0c0.4,0.1,0.7,0.2,1.1,0.3
		c1.8,0.5,3.7,0.9,5.6,1.2c0.9,0.1,1.8,0.2,2.7,0.3C79.3,114,80.8,114,82.3,114z"/>
	<path class="st4" d="M116.8,33.1c-8.7-8.7-20.9-14.2-34.4-14.2c-26.8,0-48.6,21.8-48.6,48.6c0,12.8,4.9,24.4,13,33.1
		c7.8,8.4,18.5,14,30.4,15.3c1.7,0.2,3.5,0.3,5.2,0.3c1.9,0,3.7-0.1,5.5-0.3c12-1.4,22.6-7,30.4-15.5c7.9-8.7,12.8-20.2,12.8-32.8
		C131.1,54.1,125.6,41.9,116.8,33.1z M105.6,107.9c-1,0.5-1.9,1.1-2.9,1.5c0,0,0,0,0,0c-4.7,2.3-9.9,3.8-15.4,4.3
		c-1.6,0.2-3.2,0.2-4.9,0.2c-1.5,0-3-0.1-4.5-0.2c-0.9-0.1-1.8-0.2-2.7-0.3c-1.9-0.3-3.8-0.7-5.6-1.2c-0.4-0.1-0.7-0.2-1.1-0.3
		c0,0-0.1,0-0.1,0c-8.2-2.6-15.4-7.3-20.9-13.6c-7.3-8.2-11.7-19-11.7-30.8c0-25.7,20.8-46.6,46.6-46.6c25.7,0,46.6,20.8,46.6,46.6
		c0,11.7-4.3,22.4-11.5,30.6c-0.6,0.7-1.3,1.4-1.9,2.1c-0.2,0.2-0.4,0.4-0.6,0.6c-0.5,0.5-1,0.9-1.5,1.4c-0.2,0.2-0.5,0.4-0.7,0.6
		c-0.5,0.4-1,0.8-1.5,1.2c-0.3,0.2-0.5,0.4-0.8,0.6c-0.7,0.5-1.3,1-2,1.5C107.5,106.7,106.5,107.3,105.6,107.9z"/>
</g>
</svg>
